<?xml version="1.0" encoding="iso-8859-1"?>
<!-- Generator: Adobe Illustrator 18.0.0, SVG Export Plug-In . SVG Version: 6.00 Build 0)  -->
<!DOCTYPE svg PUBLIC "-//W3C//DTD SVG 1.1//EN" "http://www.w3.org/Graphics/SVG/1.1/DTD/svg11.dtd">
<svg xmlns="http://www.w3.org/2000/svg" xmlns:xlink="http://www.w3.org/1999/xlink" version="1.1" id="Capa_1" x="0px" y="0px" viewBox="0 0 444.783 444.783" style="enable-background:new 0 0 444.783 444.783;" xml:space="preserve" width="512px" height="512px">
<g>
	<circle cx="351.378" cy="352.474" r="52.509" fill="#FFFFFF"/>
	<path d="M273.139,287.778c-1.85-14.522-15.123-24.798-29.643-22.946c-14.522,1.849-24.795,15.121-22.946,29.643l8.243,64.728   h-91.182l-54.203-83.295c-7.984-12.27-24.404-15.744-36.674-7.759c-12.27,7.984-15.744,24.404-7.759,36.674l50.246,77.213   c-3.149,5.96-4.939,12.747-4.939,19.957c0,23.632,19.157,42.79,42.789,42.79h120.408c23.632,0,42.79-19.157,42.79-42.79   c0-7.4-1.879-14.361-5.186-20.433L273.139,287.778z" fill="#FFFFFF"/>
	<path d="M430.165,58.598C367.608,20.263,295.76,0,222.391,0C149.022,0,77.175,20.263,14.617,58.598   c-5.886,3.608-7.734,11.303-4.127,17.189c3.607,5.887,11.304,7.733,17.189,4.127c21.42-13.126,43.77-23.899,66.711-32.343v60.687   c0,0.252,0.019,0.499,0.038,0.746l-7.801,15.806l-30.585,4.444c-1.716,0.249-3.141,1.451-3.677,3.1   c-0.536,1.649-0.089,3.459,1.153,4.67l22.131,21.573l-5.225,30.461c-0.293,1.709,0.409,3.436,1.812,4.455   c1.403,1.019,3.263,1.154,4.797,0.347l27.356-14.382l27.356,14.382c1.535,0.807,3.394,0.673,4.797-0.347   c1.403-1.019,2.105-2.746,1.812-4.455l-5.224-30.461l22.131-21.573c1.242-1.21,1.689-3.02,1.153-4.67   c-0.536-1.649-1.961-2.851-3.677-3.1l-30.585-4.444l-7.801-15.806c0.018-0.247,0.038-0.494,0.038-0.746V40.845   c36.395-11.1,74.012-16.465,111.592-16.099v125.513c0,0.055,0.007,0.107,0.008,0.162c-4.312,3.225-8.187,7.185-11.417,11.861   c-16.007,23.176-10.196,54.94,12.98,70.947c13.03,9,28.774,11.099,42.907,7.095c1.703-0.482,2.972-1.908,3.255-3.655   c0.283-1.747-0.472-3.501-1.936-4.495c-0.111-0.075-0.222-0.151-0.332-0.228c-23.176-16.007-28.987-47.771-12.98-70.947   c3.098-4.486,6.787-8.319,10.89-11.47c1.404-1.079,2.057-2.873,1.672-4.601c-0.385-1.728-1.736-3.075-3.465-3.458   c-7.159-1.584-14.523-1.577-21.582-0.087V25.479c40.318,2.579,80.33,11.769,118.467,27.582c-0.038,0.352-0.059,0.71-0.059,1.072v75   c0,0.252,0.019,0.499,0.038,0.746l-7.801,15.806l-30.585,4.444c-1.716,0.249-3.142,1.451-3.677,3.1   c-0.536,1.649-0.089,3.459,1.153,4.67l22.131,21.573l-5.225,30.461c-0.293,1.709,0.409,3.436,1.812,4.455   c1.403,1.019,3.263,1.154,4.797,0.347l27.356-14.382l27.356,14.382c1.535,0.807,3.395,0.673,4.797-0.347   c1.403-1.019,2.105-2.746,1.812-4.455l-5.225-30.461l22.131-21.573c1.242-1.21,1.689-3.02,1.153-4.67   c-0.536-1.649-1.961-2.851-3.677-3.1l-30.585-4.444l-7.801-15.806c0.018-0.247,0.038-0.494,0.038-0.746V62.029   c11.106,5.383,22.026,11.337,32.711,17.886c5.888,3.608,13.583,1.757,17.19-4.127C437.899,69.901,436.052,62.206,430.165,58.598z" fill="#FFFFFF"/>
</g>
<g>
</g>
<g>
</g>
<g>
</g>
<g>
</g>
<g>
</g>
<g>
</g>
<g>
</g>
<g>
</g>
<g>
</g>
<g>
</g>
<g>
</g>
<g>
</g>
<g>
</g>
<g>
</g>
<g>
</g>
</svg>
