<?xml version="1.0" encoding="iso-8859-1"?>
<!-- Generator: Adobe Illustrator 18.1.1, SVG Export Plug-In . SVG Version: 6.00 Build 0)  -->
<svg xmlns="http://www.w3.org/2000/svg" xmlns:xlink="http://www.w3.org/1999/xlink" version="1.1" id="Capa_1" x="0px" y="0px" viewBox="0 0 48.056 48.056" style="enable-background:new 0 0 48.056 48.056;" xml:space="preserve" width="512px" height="512px">
<g>
	<g>
		<path d="M34.018,8.634c-1.781,1.68-3.563,3.359-5.344,5.039c-2.281-1.246-4.563-2.492-6.845-3.738    c-0.686-0.441-1.514-0.704-2.49-0.71c-2.404-0.016-5.235,2.201-4.919,4.849c0.45,3.759,0.9,7.519,1.35,11.278    c-0.049,0.27-0.059,0.564-0.017,0.893c0.409,3.188,0.819,6.375,1.229,9.562c-2.058,2.412-4.116,4.824-6.174,7.236    c-2.39,2.801,1.654,6.883,4.062,4.062c2.437-2.855,5.684-5.701,7.582-8.941c0.946-1.614,0.009-4.428-0.208-6.125    c-0.024-0.184-0.048-0.368-0.072-0.555c3.479,3.146,5.137,7.029,4.473,12.383c-0.457,3.67,5.295,3.625,5.743,0    c0.884-7.108-1.86-12.69-6.762-16.967c0.023-0.24,0.029-0.484,0-0.732c-0.381-3.182-0.761-6.364-1.142-9.546    c1.13,0.617,2.261,1.235,3.392,1.852c0.93,0.508,2.014,0.368,2.785-0.359c2.201-2.076,4.404-4.153,6.605-6.229    C39.428,9.847,36.173,6.603,34.018,8.634z" fill="#FFFFFF"/>
		<path d="M31.944,20.894h-6.35l0.733,4.34h5.615c1.146,0,2.071-0.927,2.071-2.072v-0.196    C34.016,21.821,33.089,20.894,31.944,20.894z" fill="#FFFFFF"/>
		<circle cx="21.319" cy="4.294" r="4.294" fill="#FFFFFF"/>
	</g>
</g>
<g>
</g>
<g>
</g>
<g>
</g>
<g>
</g>
<g>
</g>
<g>
</g>
<g>
</g>
<g>
</g>
<g>
</g>
<g>
</g>
<g>
</g>
<g>
</g>
<g>
</g>
<g>
</g>
<g>
</g>
</svg>
